# xmcd
#
# Track frame offsets:
#	150
#	11888
#	16336
#	30022
#	43711
#	62379
#	70534
#	84335
#	96681
#	106640
#	114100
#	129420
#	139216
#	146894
#	155615
#	166117
#	179206
#	189479
#	197865
#	211552
#	225097
#	239941
#	249518
#	259617
#	270739
#	280703
#	290798
#	303896
#	317286
#
# Disc length: 4414 seconds
#
# Revision: 2
# Processed by: cddbd v1.5.2PL0 Copyright (c) Steve Scherf et al.
# Submitted via: EasyCDDAExtractor 2011.3.0.0
#
DISCID=8c113c1d
DTITLE=Nedvědi - 44 slavných písni a ještě něco navíc CD 1
DYEAR=2010
DGENRE=Country
TTITLE0=Tulácký ráno
TTITLE1=Petrolejky
TTITLE2=Proužek
TTITLE3=Kousek
TTITLE4=Osadní píseň
TTITLE5=Kytka
TTITLE6=Vodník
TTITLE7=Křížek
TTITLE8=Lístek
TTITLE9=Mrazík
TTITLE10=Brdskej kemp
TTITLE11=Večerka
TTITLE12=Zeptej se mě
TTITLE13=Už se nemrač
TTITLE14=Piškotka
TTITLE15=Lipka
TTITLE16=Tužka
TTITLE17=Písnička na dobrou noc
TTITLE18=Starý příběh
TTITLE19=Válka růží
TTITLE20=Rok 94
TTITLE21=Luka pod Medníkem
TTITLE22=Skládanka
TTITLE23=Ještě ne
TTITLE24=Táta
TTITLE25=Všechno nejlepší
TTITLE26=Manitů
TTITLE27=Kocábka
TTITLE28=Pocestný
EXTD=
EXTT0=
EXTT1=
EXTT2=
EXTT3=
EXTT4=
EXTT5=
EXTT6=
EXTT7=
EXTT8=
EXTT9=
EXTT10=
EXTT11=
EXTT12=
EXTT13=
EXTT14=
EXTT15=
EXTT16=
EXTT17=
EXTT18=
EXTT19=
EXTT20=
EXTT21=
EXTT22=
EXTT23=
EXTT24=
EXTT25=
EXTT26=
EXTT27=
EXTT28=
PLAYORDER=
